<?xml version="1.0" standalone="no"?>
<!DOCTYPE svg PUBLIC "-//W3C//DTD SVG 20010904//EN"
 "http://www.w3.org/TR/2001/REC-SVG-20010904/DTD/svg10.dtd">
<svg version="1.0" xmlns="http://www.w3.org/2000/svg"
 width="260.000000pt" height="260.000000pt" viewBox="0 0 260.000000 260.000000"
 preserveAspectRatio="xMidYMid meet">
<metadata>
Created by potrace 1.11, written by Peter Selinger 2001-2013
</metadata>
<g transform="translate(0.000000,260.000000) scale(0.100000,-0.100000)"
fill="#000000" stroke="none">
<path d="M873 2573 c-7 -2 -13 -18 -13 -33 0 -25 5 -31 38 -40 32 -8 42 -18
57 -50 10 -22 16 -42 14 -44 -5 -5 -247 -97 -263 -100 -6 -2 -30 -8 -54 -15
-79 -22 -183 -16 -259 16 -18 7 -34 13 -36 13 -11 0 -3 -49 15 -87 20 -43 20
-45 3 -77 -23 -42 -12 -56 58 -75 26 -8 47 -16 48 -20 0 -3 2 -226 3 -496 2
-330 7 -510 15 -550 61 -303 208 -560 436 -763 113 -101 225 -172 328 -208 54
-19 112 -5 212 53 190 109 364 280 483 475 47 76 96 183 123 263 15 47 13 40
34 135 26 120 27 132 28 622 1 256 5 470 10 474 4 4 15 8 25 9 9 1 34 9 54 18
38 16 39 18 23 77 -3 14 -1 39 5 55 6 17 13 45 16 64 4 29 2 32 -13 26 -82
-35 -161 -45 -243 -31 -71 12 -133 31 -245 76 -11 4 -36 14 -55 21 -52 18 -54
23 -32 71 16 36 26 46 51 51 26 6 31 11 31 36 0 17 -6 31 -16 35 -26 10 -192
7 -199 -4 -4 -7 -12 -7 -25 0 -19 10 -633 13 -657 3z"/>
</g>
</svg>
